<svg xmlns="http://www.w3.org/2000/svg" viewBox="0 0 512 512">
  <rect width="512" height="512" rx="120" fill="#F8FAF7"/>
  <circle cx="256" cy="256" r="176" fill="#BFEFE0"/>
  <path fill="#3E8F63" d="M247 151c-43-64-126-5-86 56 20 29 56 44 86 52-7-31-15-77 0-108Zm18 0c43-64 126-5 86 56-20 29-56 44-86 52 7-31 15-77 0-108Zm-18 210c-43 64-126 5-86-56 20-29 56-44 86-52-7 31-15 77 0 108Zm18 0c43 64 126 5 86-56-20-29-56-44-86-52 7 31 15 77 0 108Z"/>
  <circle cx="256" cy="256" r="30" fill="#8DDFA8"/>
</svg>
