<svg xmlns="http://www.w3.org/2000/svg" viewBox="0 0 512 512" role="img" aria-label="Clover Desk">
  <defs>
    <radialGradient id="bgGlow" cx="31%" cy="21%" r="82%">
      <stop offset="0" stop-color="#FFFFFF"/>
      <stop offset=".42" stop-color="#DFF7EA"/>
      <stop offset=".78" stop-color="#C6EFE0"/>
      <stop offset="1" stop-color="#F8FBF4"/>
    </radialGradient>
    <linearGradient id="glass" x1="94" y1="42" x2="436" y2="458" gradientUnits="userSpaceOnUse">
      <stop stop-color="#FFFFFF" stop-opacity=".88"/>
      <stop offset=".44" stop-color="#D7F7E7" stop-opacity=".64"/>
      <stop offset="1" stop-color="#BCEFD8" stop-opacity=".78"/>
    </linearGradient>
    <linearGradient id="leaf" x1="150" y1="104" x2="365" y2="385" gradientUnits="userSpaceOnUse">
      <stop stop-color="#E9FFF2" stop-opacity=".9"/>
      <stop offset=".45" stop-color="#9CE9BF" stop-opacity=".78"/>
      <stop offset="1" stop-color="#48B978" stop-opacity=".9"/>
    </linearGradient>
    <linearGradient id="edge" x1="145" y1="124" x2="367" y2="372" gradientUnits="userSpaceOnUse">
      <stop stop-color="#FFFFFF" stop-opacity=".95"/>
      <stop offset=".55" stop-color="#5CC58C" stop-opacity=".72"/>
      <stop offset="1" stop-color="#1D7D50" stop-opacity=".82"/>
    </linearGradient>
    <filter id="softShadow" x="-20%" y="-20%" width="140%" height="150%" color-interpolation-filters="sRGB">
      <feDropShadow dx="0" dy="24" stdDeviation="24" flood-color="#17734C" flood-opacity=".18"/>
    </filter>
    <filter id="innerGlow" x="-10%" y="-10%" width="120%" height="120%" color-interpolation-filters="sRGB">
      <feGaussianBlur stdDeviation="5" result="blur"/>
      <feComposite in="SourceGraphic" in2="blur" operator="over"/>
    </filter>
  </defs>

  <rect width="512" height="512" rx="118" fill="url(#bgGlow)"/>
  <circle cx="67" cy="62" r="132" fill="#FFFFFF" opacity=".28"/>
  <circle cx="452" cy="445" r="128" fill="#FFFFFF" opacity=".32"/>

  <g filter="url(#softShadow)">
    <rect x="72" y="70" width="368" height="368" rx="96" fill="url(#glass)" stroke="#FFFFFF" stroke-opacity=".78" stroke-width="7"/>
    <rect x="84" y="82" width="344" height="344" rx="86" fill="none" stroke="#FFFFFF" stroke-opacity=".32" stroke-width="3"/>

    <g filter="url(#innerGlow)">
      <path d="M249 228c-49-7-86-33-86-74 0-35 27-62 61-62 29 0 49 20 55 50 5-30 26-50 54-50 34 0 61 27 61 62 0 41-37 67-86 74 49 7 86 33 86 74 0 35-27 62-61 62-28 0-49-20-54-50-6 30-26 50-55 50-34 0-61-27-61-62 0-41 37-67 86-74Z" fill="url(#leaf)" opacity=".86"/>
      <path d="M249 228c-49-7-86-33-86-74 0-35 27-62 61-62 29 0 49 20 55 50 5-30 26-50 54-50 34 0 61 27 61 62 0 41-37 67-86 74 49 7 86 33 86 74 0 35-27 62-61 62-28 0-49-20-54-50-6 30-26 50-55 50-34 0-61-27-61-62 0-41 37-67 86-74Z" fill="none" stroke="url(#edge)" stroke-width="8" stroke-linejoin="round" opacity=".78"/>
      <circle cx="279" cy="228" r="22" fill="#BDF3D5" opacity=".92"/>
    </g>
  </g>

  <path d="M141 96c32-17 69-22 103-15-44 12-79 36-104 72-10 15-33 4-27-13 6-18 16-33 28-44Z" fill="#FFFFFF" opacity=".55"/>
  <path d="M391 108l8 22 22 8-22 8-8 22-8-22-22-8 22-8 8-22Z" fill="#FFFFFF" opacity=".62"/>
</svg>
