<svg xmlns="http://www.w3.org/2000/svg" viewBox="0 0 512 512" role="img" aria-label="Clover Desk">
  <defs>
    <linearGradient id="bg" x1="72" y1="56" x2="432" y2="456" gradientUnits="userSpaceOnUse">
      <stop stop-color="#F7FFF9"/>
      <stop offset=".48" stop-color="#DDF7EA"/>
      <stop offset="1" stop-color="#F8FAF7"/>
    </linearGradient>
    <linearGradient id="leaf" x1="132" y1="114" x2="378" y2="396" gradientUnits="userSpaceOnUse">
      <stop stop-color="#8DE6B5"/>
      <stop offset=".58" stop-color="#31A66B"/>
      <stop offset="1" stop-color="#16764A"/>
    </linearGradient>
    <filter id="softShadow" x="-25%" y="-25%" width="150%" height="150%" color-interpolation-filters="sRGB">
      <feDropShadow dx="0" dy="18" stdDeviation="18" flood-color="#126A45" flood-opacity=".16"/>
    </filter>
  </defs>
  <rect width="512" height="512" rx="116" fill="url(#bg)"/>
  <circle cx="256" cy="256" r="182" fill="#FFFFFF" opacity=".7"/>
  <g filter="url(#softShadow)">
    <path fill="url(#leaf)" d="M242 226c-52-14-102-49-102-101 0-36 26-63 62-63 31 0 52 22 58 51 6-29 27-51 58-51 36 0 62 27 62 63 0 52-50 87-102 101 52 14 102 49 102 101 0 36-26 63-62 63-31 0-52-22-58-51-6 29-27 51-58 51-36 0-62-27-62-63 0-52 50-87 102-101Z"/>
    <circle cx="260" cy="226" r="34" fill="#F7FFF9"/>
    <circle cx="260" cy="226" r="19" fill="#61C98D"/>
    <path fill="#19784D" d="M259 257c10 30 29 60 64 88 9 7 11 21 4 30-8 10-22 11-32 3-38-31-61-66-73-103-3-11 3-23 14-26 10-3 20 0 23 8Z"/>
  </g>
  <path fill="#FFFFFF" opacity=".72" d="M151 85c34-20 76-29 116-24-54 14-99 45-130 91-12 18-39 3-31-17 9-21 24-38 45-50Z"/>
  <path fill="#F7C948" d="M384 105l8 22 23 8-23 8-8 22-8-22-23-8 23-8 8-22Z"/>
  <path fill="#8DE6B5" d="M122 353l6 17 17 6-17 6-6 17-6-17-17-6 17-6 6-17Z"/>
</svg>
