<svg xmlns="http://www.w3.org/2000/svg" viewBox="0 0 512 512" role="img" aria-label="Eunbi's personal Diary">
  <defs>
    <linearGradient id="appBg" x1="80" y1="40" x2="432" y2="472" gradientUnits="userSpaceOnUse">
      <stop stop-color="#F6FFF9"/>
      <stop offset=".52" stop-color="#D9F6E8"/>
      <stop offset="1" stop-color="#F9FBF6"/>
    </linearGradient>
    <linearGradient id="leafA" x1="126" y1="104" x2="390" y2="392" gradientUnits="userSpaceOnUse">
      <stop stop-color="#9EF0C4"/>
      <stop offset=".52" stop-color="#38B978"/>
      <stop offset="1" stop-color="#137047"/>
    </linearGradient>
    <linearGradient id="leafB" x1="122" y1="390" x2="384" y2="116" gradientUnits="userSpaceOnUse">
      <stop stop-color="#BDF5DB"/>
      <stop offset=".55" stop-color="#55C98B"/>
      <stop offset="1" stop-color="#218052"/>
    </linearGradient>
    <filter id="shadow" x="-25%" y="-25%" width="150%" height="150%" color-interpolation-filters="sRGB">
      <feDropShadow dx="0" dy="18" stdDeviation="18" flood-color="#0E6B44" flood-opacity=".18"/>
    </filter>
  </defs>

  <rect width="512" height="512" rx="120" fill="url(#appBg)"/>
  <circle cx="256" cy="256" r="184" fill="#FFFFFF" opacity=".56"/>
  <circle cx="256" cy="256" r="132" fill="#DFF8EC" opacity=".42"/>

  <g filter="url(#shadow)">
    <path fill="url(#leafA)" d="M236 216c-43-13-82-43-82-84 0-35 27-62 62-62 31 0 52 23 56 55 4-32 25-55 56-55 35 0 62 27 62 62 0 41-39 71-82 84 43 13 82 43 82 84 0 35-27 62-62 62-31 0-52-23-56-55-4 32-25 55-56 55-35 0-62-27-62-62 0-41 39-71 82-84Z"/>
    <path fill="url(#leafB)" d="M256 250c-35 42-77 70-117 50-31-16-43-52-27-83 14-28 44-39 74-28-20-25-22-57-2-81 22-27 61-31 88-9 31 26 31 76 16 120 35-42 77-70 117-50 31 16 43 52 27 83-14 28-44 39-74 28 20 25 22 57 2 81-22 27-61 31-88 9-31-26-31-76-16-120Z" opacity=".92"/>
    <circle cx="256" cy="236" r="38" fill="#F7FFF9"/>
    <circle cx="256" cy="236" r="22" fill="#46BE7A"/>
    <path fill="#176F47" d="M257 270c12 34 35 68 74 98 10 8 12 23 4 33-8 11-24 12-34 4-45-35-72-76-85-121-4-12 3-25 15-29 12-3 23 3 26 15Z"/>
  </g>

  <path fill="#FFFFFF" opacity=".72" d="M151 88c35-20 75-28 114-22-51 13-94 43-124 87-12 18-39 4-31-16 9-21 24-38 41-49Z"/>
  <path fill="#F6C84F" d="M383 96l9 26 26 9-26 9-9 26-9-26-26-9 26-9 9-26Z"/>
  <path fill="#79DFA9" d="M126 350l7 20 20 7-20 7-7 20-7-20-20-7 20-7 7-20Z"/>
</svg>
